<svg xmlns="http://www.w3.org/2000/svg" viewBox="0 0 1200 630" width="1200" height="630" role="presentation" data-placeholder=""><style>svg{--c-scheme:light;--c-ground:#efeeeb;--c-groundAlt:#e3e2df;--c-rule:#bfc8ca;--c-shape:#cbe7f0;--c-deep:#0e4a52}@media (prefers-color-scheme:dark){svg{--c-ground:#1b2122;--c-groundAlt:#252b2c;--c-rule:#3f484a;--c-shape:#324a52;--c-deep:#82d3de}}</style><rect width="1200" height="630" fill="var(--c-ground)"/><rect x="96" y="78.75" width="1008" height="1" fill="var(--c-rule)" opacity="0.70"/><rect x="96" y="157.5" width="1008" height="1" fill="var(--c-rule)" opacity="0.65"/><rect x="96" y="236.25" width="1008" height="1" fill="var(--c-rule)" opacity="0.59"/><rect x="96" y="315" width="1008" height="1" fill="var(--c-rule)" opacity="0.53"/><rect x="96" y="393.75" width="1008" height="1" fill="var(--c-rule)" opacity="0.48"/><rect x="96" y="472.5" width="1008" height="1" fill="var(--c-rule)" opacity="0.42"/><rect x="96" y="551.25" width="1008" height="1" fill="var(--c-rule)" opacity="0.37"/><g transform="translate(555 202) scale(1.4)" fill="var(--c-deep)"><rect x="2.5" y="2.5" width="59" height="59" rx="14" fill="none" stroke="var(--c-deep)" stroke-width="3" opacity="0.3"/><rect x="26" y="17" width="12" height="4" rx="2"/><rect x="18" y="30" width="28" height="4" rx="2"/><rect x="10" y="43" width="44" height="4" rx="2"/></g><rect x="504" y="428" width="192" height="4" rx="2" fill="var(--c-deep)" opacity="0.5"/></svg>
